c<svg aria-hidden="true" style="position: absolute; width: 0; height: 0; overflow: hidden;" version="1.1" xmlns="http://www.w3.org/2000/svg" xmlns:xlink="http://www.w3.org/1999/xlink">
<defs>
<symbol id="icon-Icon-1" viewBox="0 0 32 32">
<path stroke-linejoin="miter" stroke-linecap="butt" stroke-miterlimit="4" stroke-width="0.5333" d="M3.615 15.247l-0.001 0.002c-0.63 1.863-0.947 3.663-0.947 5.4v4.858c0 0.736 0.597 1.333 1.333 1.333h6.010c0.736 0 1.333-0.597 1.333-1.333v-4.916l-0-0.002c-0.019-2.215 0.335-4.233 1.056-6.056 0.619-1.543 1.361-3.033 2.224-4.471 0.371-0.617 0.208-1.429-0.4-1.834l-3.214-2.142c-0.488-0.325-1.144-0.299-1.588 0.106-1.158 1.056-2.216 2.302-3.175 3.738l-0 0.001c-1.106 1.664-1.983 3.437-2.631 5.317zM17.95 15.247l-0 0.002c-0.63 1.863-0.947 3.663-0.947 5.4v4.858c0 0.736 0.597 1.333 1.333 1.333h6.010c0.736 0 1.333-0.597 1.333-1.333v-4.918c-0.019-2.215 0.335-4.233 1.055-6.055 0.62-1.543 1.361-3.033 2.224-4.471 0.371-0.617 0.209-1.429-0.4-1.834l-3.214-2.142c-0.488-0.325-1.144-0.299-1.588 0.106-1.158 1.056-2.216 2.302-3.175 3.738l-0 0.001c-1.106 1.664-1.983 3.437-2.631 5.317z"></path>
</symbol>
<symbol id="icon-Icon" viewBox="0 0 32 32">
<path fill="none" stroke="#caff33" style="stroke: var(--color1, #caff33)" stroke-linejoin="round" stroke-linecap="round" stroke-miterlimit="4" stroke-width="1.8824" d="M8 25.333l17.333-17.333M25.333 8v16.64M25.333 8h-16.64" fill="#caff33"></path>
</symbol>
<symbol id="icon-Vector" viewBox="0 0 32 32">
<path d="M22.984 0.331l9.080-0.331-0.329 9.083-1.514-0.053 0.232-6.346-29.269 29.28-1.070-1.071 29.271-29.282-6.345 0.232-0.055-1.512z"></path>
</symbol>
<symbol id="icon-Abstract-Design" viewBox="0 0 30 32">
<path d="M29.491 30.79c0.091 0 0.165 0.074 0.165 0.165s-0.074 0.165-0.165 0.165c-0.091 0-0.165-0.074-0.165-0.165s0.074-0.165 0.165-0.165z"></path>
<path d="M29.491 29.911c0.091 0 0.165 0.074 0.165 0.165s-0.074 0.165-0.165 0.165c-0.091 0-0.165-0.074-0.165-0.165s0.074-0.165 0.165-0.165z"></path>
<path d="M29.491 29.031c0.091 0 0.165 0.074 0.165 0.165s-0.074 0.165-0.165 0.165c-0.091 0-0.165-0.074-0.165-0.165s0.074-0.165 0.165-0.165z"></path>
<path d="M29.491 28.151c0.091 0 0.165 0.074 0.165 0.165s-0.074 0.165-0.165 0.165c-0.091 0-0.165-0.074-0.165-0.165s0.074-0.165 0.165-0.165z"></path>
<path d="M29.491 27.271c0.091 0 0.165 0.074 0.165 0.165s-0.074 0.165-0.165 0.165c-0.091 0-0.165-0.074-0.165-0.165s0.074-0.165 0.165-0.165z"></path>
<path d="M29.491 26.392c0.091 0 0.165 0.074 0.165 0.165s-0.074 0.165-0.165 0.165c-0.091 0-0.165-0.074-0.165-0.165s0.074-0.165 0.165-0.165z"></path>
<path d="M29.491 25.512c0.091 0 0.165 0.074 0.165 0.165s-0.074 0.165-0.165 0.165c-0.091 0-0.165-0.074-0.165-0.165s0.074-0.165 0.165-0.165z"></path>
<path d="M29.491 24.632c0.091 0 0.165 0.074 0.165 0.165s-0.074 0.165-0.165 0.165c-0.091 0-0.165-0.074-0.165-0.165s0.074-0.165 0.165-0.165z"></path>
<path d="M29.491 23.753c0.091 0 0.165 0.074 0.165 0.165s-0.074 0.165-0.165 0.165c-0.091 0-0.165-0.074-0.165-0.165s0.074-0.165 0.165-0.165z"></path>
<path d="M29.491 22.873c0.091 0 0.165 0.074 0.165 0.165s-0.074 0.165-0.165 0.165c-0.091 0-0.165-0.074-0.165-0.165s0.074-0.165 0.165-0.165z"></path>
<path d="M29.491 21.993c0.091 0 0.165 0.074 0.165 0.165s-0.074 0.165-0.165 0.165c-0.091 0-0.165-0.074-0.165-0.165s0.074-0.165 0.165-0.165z"></path>
<path d="M29.491 21.113c0.091 0 0.165 0.074 0.165 0.165s-0.074 0.165-0.165 0.165c-0.091 0-0.165-0.074-0.165-0.165s0.074-0.165 0.165-0.165z"></path>
<path d="M29.491 20.234c0.091 0 0.165 0.074 0.165 0.165s-0.074 0.165-0.165 0.165c-0.091 0-0.165-0.074-0.165-0.165s0.074-0.165 0.165-0.165z"></path>
<path d="M29.491 19.354c0.091 0 0.165 0.074 0.165 0.165s-0.074 0.165-0.165 0.165c-0.091 0-0.165-0.074-0.165-0.165s0.074-0.165 0.165-0.165z"></path>
<path d="M29.491 18.474c0.091 0 0.165 0.074 0.165 0.165s-0.074 0.165-0.165 0.165c-0.091 0-0.165-0.074-0.165-0.165s0.074-0.165 0.165-0.165z"></path>
<path d="M29.491 17.595c0.091 0 0.165 0.074 0.165 0.165s-0.074 0.165-0.165 0.165c-0.091 0-0.165-0.074-0.165-0.165s0.074-0.165 0.165-0.165z"></path>
<path d="M29.491 16.715c0.091 0 0.165 0.074 0.165 0.165s-0.074 0.165-0.165 0.165c-0.091 0-0.165-0.074-0.165-0.165s0.074-0.165 0.165-0.165z"></path>
<path d="M29.491 15.835c0.091 0 0.165 0.074 0.165 0.165s-0.074 0.165-0.165 0.165c-0.091 0-0.165-0.074-0.165-0.165s0.074-0.165 0.165-0.165z"></path>
<path d="M29.491 14.955c0.091 0 0.165 0.074 0.165 0.165s-0.074 0.165-0.165 0.165c-0.091 0-0.165-0.074-0.165-0.165s0.074-0.165 0.165-0.165z"></path>
<path d="M29.491 14.076c0.091 0 0.165 0.074 0.165 0.165s-0.074 0.165-0.165 0.165c-0.091 0-0.165-0.074-0.165-0.165s0.074-0.165 0.165-0.165z"></path>
<path d="M29.491 13.196c0.091 0 0.165 0.074 0.165 0.165s-0.074 0.165-0.165 0.165c-0.091 0-0.165-0.074-0.165-0.165s0.074-0.165 0.165-0.165z"></path>
<path d="M29.491 12.316c0.091 0 0.165 0.074 0.165 0.165s-0.074 0.165-0.165 0.165c-0.091 0-0.165-0.074-0.165-0.165s0.074-0.165 0.165-0.165z"></path>
<path d="M29.491 11.436c0.091 0 0.165 0.074 0.165 0.165s-0.074 0.165-0.165 0.165c-0.091 0-0.165-0.074-0.165-0.165s0.074-0.165 0.165-0.165z"></path>
<path d="M29.491 10.557c0.091 0 0.165 0.074 0.165 0.165s-0.074 0.165-0.165 0.165c-0.091 0-0.165-0.074-0.165-0.165s0.074-0.165 0.165-0.165z"></path>
<path d="M29.491 9.677c0.091 0 0.165 0.074 0.165 0.165s-0.074 0.165-0.165 0.165c-0.091 0-0.165-0.074-0.165-0.165s0.074-0.165 0.165-0.165z"></path>
<path d="M29.491 8.797c0.091 0 0.165 0.074 0.165 0.165s-0.074 0.165-0.165 0.165c-0.091 0-0.165-0.074-0.165-0.165s0.074-0.165 0.165-0.165z"></path>
<path d="M29.491 7.918c0.091 0 0.165 0.074 0.165 0.165s-0.074 0.165-0.165 0.165c-0.091 0-0.165-0.074-0.165-0.165s0.074-0.165 0.165-0.165z"></path>
<path d="M29.491 7.038c0.091 0 0.165 0.074 0.165 0.165s-0.074 0.165-0.165 0.165c-0.091 0-0.165-0.074-0.165-0.165s0.074-0.165 0.165-0.165z"></path>
<path d="M29.491 6.158c0.091 0 0.165 0.074 0.165 0.165s-0.074 0.165-0.165 0.165c-0.091 0-0.165-0.074-0.165-0.165s0.074-0.165 0.165-0.165z"></path>
<path d="M29.491 5.278c0.091 0 0.165 0.074 0.165 0.165s-0.074 0.165-0.165 0.165c-0.091 0-0.165-0.074-0.165-0.165s0.074-0.165 0.165-0.165z"></path>
<path d="M29.491 4.399c0.091 0 0.165 0.074 0.165 0.165s-0.074 0.165-0.165 0.165c-0.091 0-0.165-0.074-0.165-0.165s0.074-0.165 0.165-0.165z"></path>
<path d="M29.491 3.519c0.091 0 0.165 0.074 0.165 0.165s-0.074 0.165-0.165 0.165c-0.091 0-0.165-0.074-0.165-0.165s0.074-0.165 0.165-0.165z"></path>
<path d="M29.491 2.639c0.091 0 0.165 0.074 0.165 0.165s-0.074 0.165-0.165 0.165c-0.091 0-0.165-0.074-0.165-0.165s0.074-0.165 0.165-0.165z"></path>
<path d="M29.491 1.759c0.091 0 0.165 0.074 0.165 0.165s-0.074 0.165-0.165 0.165c-0.091 0-0.165-0.074-0.165-0.165s0.074-0.165 0.165-0.165z"></path>
<path d="M29.491 0.88c0.091 0 0.165 0.074 0.165 0.165s-0.074 0.165-0.165 0.165c-0.091 0-0.165-0.074-0.165-0.165s0.074-0.165 0.165-0.165z"></path>
<path d="M29.491 0c0.091 0 0.165 0.074 0.165 0.165s-0.074 0.165-0.165 0.165c-0.091 0-0.165-0.074-0.165-0.165s0.074-0.165 0.165-0.165z"></path>
<path d="M30.263 31.67c0.091 0 0.165 0.074 0.165 0.165s-0.074 0.165-0.165 0.165c-0.091 0-0.165-0.074-0.165-0.165s0.074-0.165 0.165-0.165z"></path>
<path d="M30.263 30.79c0.091 0 0.165 0.074 0.165 0.165s-0.074 0.165-0.165 0.165c-0.091 0-0.165-0.074-0.165-0.165s0.074-0.165 0.165-0.165z"></path>
<path d="M30.263 29.911c0.091 0 0.165 0.074 0.165 0.165s-0.074 0.165-0.165 0.165c-0.091 0-0.165-0.074-0.165-0.165s0.074-0.165 0.165-0.165z"></path>
<path d="M30.263 29.031c0.091 0 0.165 0.074 0.165 0.165s-0.074 0.165-0.165 0.165c-0.091 0-0.165-0.074-0.165-0.165s0.074-0.165 0.165-0.165z"></path>
<path d="M30.263 28.151c0.091 0 0.165 0.074 0.165 0.165s-0.074 0.165-0.165 0.165c-0.091 0-0.165-0.074-0.165-0.165s0.074-0.165 0.165-0.165z"></path>
<path d="M30.263 27.271c0.091 0 0.165 0.074 0.165 0.165s-0.074 0.165-0.165 0.165c-0.091 0-0.165-0.074-0.165-0.165s0.074-0.165 0.165-0.165z"></path>
<path d="M30.263 26.392c0.091 0 0.165 0.074 0.165 0.165s-0.074 0.165-0.165 0.165c-0.091 0-0.165-0.074-0.165-0.165s0.074-0.165 0.165-0.165z"></path>
<path d="M30.263 25.512c0.091 0 0.165 0.074 0.165 0.165s-0.074 0.165-0.165 0.165c-0.091 0-0.165-0.074-0.165-0.165s0.074-0.165 0.165-0.165z"></path>
<path d="M30.263 24.632c0.091 0 0.165 0.074 0.165 0.165s-0.074 0.165-0.165 0.165c-0.091 0-0.165-0.074-0.165-0.165s0.074-0.165 0.165-0.165z"></path>
<path d="M30.263 23.753c0.091 0 0.165 0.074 0.165 0.165s-0.074 0.165-0.165 0.165c-0.091 0-0.165-0.074-0.165-0.165s0.074-0.165 0.165-0.165z"></path>
<path d="M30.263 22.873c0.091 0 0.165 0.074 0.165 0.165s-0.074 0.165-0.165 0.165c-0.091 0-0.165-0.074-0.165-0.165s0.074-0.165 0.165-0.165z"></path>
<path d="M30.263 21.993c0.091 0 0.165 0.074 0.165 0.165s-0.074 0.165-0.165 0.165c-0.091 0-0.165-0.074-0.165-0.165s0.074-0.165 0.165-0.165z"></path>
<path d="M30.263 21.113c0.091 0 0.165 0.074 0.165 0.165s-0.074 0.165-0.165 0.165c-0.091 0-0.165-0.074-0.165-0.165s0.074-0.165 0.165-0.165z"></path>
<path d="M30.263 20.234c0.091 0 0.165 0.074 0.165 0.165s-0.074 0.165-0.165 0.165c-0.091 0-0.165-0.074-0.165-0.165s0.074-0.165 0.165-0.165z"></path>
<path d="M30.263 19.354c0.091 0 0.165 0.074 0.165 0.165s-0.074 0.165-0.165 0.165c-0.091 0-0.165-0.074-0.165-0.165s0.074-0.165 0.165-0.165z"></path>
<path d="M30.263 18.474c0.091 0 0.165 0.074 0.165 0.165s-0.074 0.165-0.165 0.165c-0.091 0-0.165-0.074-0.165-0.165s0.074-0.165 0.165-0.165z"></path>
<path d="M30.263 17.595c0.091 0 0.165 0.074 0.165 0.165s-0.074 0.165-0.165 0.165c-0.091 0-0.165-0.074-0.165-0.165s0.074-0.165 0.165-0.165z"></path>
<path d="M30.263 16.715c0.091 0 0.165 0.074 0.165 0.165s-0.074 0.165-0.165 0.165c-0.091 0-0.165-0.074-0.165-0.165s0.074-0.165 0.165-0.165z"></path>
<path d="M30.263 15.835c0.091 0 0.165 0.074 0.165 0.165s-0.074 0.165-0.165 0.165c-0.091 0-0.165-0.074-0.165-0.165s0.074-0.165 0.165-0.165z"></path>
<path d="M30.263 14.955c0.091 0 0.165 0.074 0.165 0.165s-0.074 0.165-0.165 0.165c-0.091 0-0.165-0.074-0.165-0.165s0.074-0.165 0.165-0.165z"></path>
<path d="M30.263 14.076c0.091 0 0.165 0.074 0.165 0.165s-0.074 0.165-0.165 0.165c-0.091 0-0.165-0.074-0.165-0.165s0.074-0.165 0.165-0.165z"></path>
<path d="M30.263 13.196c0.091 0 0.165 0.074 0.165 0.165s-0.074 0.165-0.165 0.165c-0.091 0-0.165-0.074-0.165-0.165s0.074-0.165 0.165-0.165z"></path>
<path d="M30.263 12.316c0.091 0 0.165 0.074 0.165 0.165s-0.074 0.165-0.165 0.165c-0.091 0-0.165-0.074-0.165-0.165s0.074-0.165 0.165-0.165z"></path>
<path d="M30.263 11.436c0.091 0 0.165 0.074 0.165 0.165s-0.074 0.165-0.165 0.165c-0.091 0-0.165-0.074-0.165-0.165s0.074-0.165 0.165-0.165z"></path>
<path d="M30.263 10.557c0.091 0 0.165 0.074 0.165 0.165s-0.074 0.165-0.165 0.165c-0.091 0-0.165-0.074-0.165-0.165s0.074-0.165 0.165-0.165z"></path>
<path d="M30.263 9.677c0.091 0 0.165 0.074 0.165 0.165s-0.074 0.165-0.165 0.165c-0.091 0-0.165-0.074-0.165-0.165s0.074-0.165 0.165-0.165z"></path>
<path d="M30.263 8.797c0.091 0 0.165 0.074 0.165 0.165s-0.074 0.165-0.165 0.165c-0.091 0-0.165-0.074-0.165-0.165s0.074-0.165 0.165-0.165z"></path>
<path d="M30.263 7.918c0.091 0 0.165 0.074 0.165 0.165s-0.074 0.165-0.165 0.165c-0.091 0-0.165-0.074-0.165-0.165s0.074-0.165 0.165-0.165z"></path>
<path d="M30.263 7.038c0.091 0 0.165 0.074 0.165 0.165s-0.074 0.165-0.165 0.165c-0.091 0-0.165-0.074-0.165-0.165s0.074-0.165 0.165-0.165z"></path>
<path d="M30.263 6.158c0.091 0 0.165 0.074 0.165 0.165s-0.074 0.165-0.165 0.165c-0.091 0-0.165-0.074-0.165-0.165s0.074-0.165 0.165-0.165z"></path>
<path d="M30.263 5.278c0.091 0 0.165 0.074 0.165 0.165s-0.074 0.165-0.165 0.165c-0.091 0-0.165-0.074-0.165-0.165s0.074-0.165 0.165-0.165z"></path>
<path d="M30.263 4.399c0.091 0 0.165 0.074 0.165 0.165s-0.074 0.165-0.165 0.165c-0.091 0-0.165-0.074-0.165-0.165s0.074-0.165 0.165-0.165z"></path>
<path d="M30.263 3.519c0.091 0 0.165 0.074 0.165 0.165s-0.074 0.165-0.165 0.165c-0.091 0-0.165-0.074-0.165-0.165s0.074-0.165 0.165-0.165z"></path>
<path d="M30.263 2.639c0.091 0 0.165 0.074 0.165 0.165s-0.074 0.165-0.165 0.165c-0.091 0-0.165-0.074-0.165-0.165s0.074-0.165 0.165-0.165z"></path>
<path d="M30.263 1.759c0.091 0 0.165 0.074 0.165 0.165s-0.074 0.165-0.165 0.165c-0.091 0-0.165-0.074-0.165-0.165s0.074-0.165 0.165-0.165z"></path>
<path d="M30.263 0.88c0.091 0 0.165 0.074 0.165 0.165s-0.074 0.165-0.165 0.165c-0.091 0-0.165-0.074-0.165-0.165s0.074-0.165 0.165-0.165z"></path>
<path d="M30.263 0c0.091 0 0.165 0.074 0.165 0.165s-0.074 0.165-0.165 0.165c-0.091 0-0.165-0.074-0.165-0.165s0.074-0.165 0.165-0.165z"></path>
</symbol>
<symbol id="icon-images" viewBox="0 0 36 32">
<path d="M34 4h-2v-2c0-1.1-0.9-2-2-2h-28c-1.1 0-2 0.9-2 2v24c0 1.1 0.9 2 2 2h2v2c0 1.1 0.9 2 2 2h28c1.1 0 2-0.9 2-2v-24c0-1.1-0.9-2-2-2zM4 6v20h-1.996c-0.001-0.001-0.003-0.002-0.004-0.004v-23.993c0.001-0.001 0.002-0.003 0.004-0.004h27.993c0.001 0.001 0.003 0.002 0.004 0.004v1.996h-24c-1.1 0-2 0.9-2 2v0zM34 29.996c-0.001 0.001-0.002 0.003-0.004 0.004h-27.993c-0.001-0.001-0.003-0.002-0.004-0.004v-23.993c0.001-0.001 0.002-0.003 0.004-0.004h27.993c0.001 0.001 0.003 0.002 0.004 0.004v23.993z"></path>
<path d="M30 11c0 1.657-1.343 3-3 3s-3-1.343-3-3 1.343-3 3-3 3 1.343 3 3z"></path>
<path d="M32 28h-24v-4l7-12 8 10h2l7-6z"></path>
</symbol>
<symbol id="icon-camera" viewBox="0 0 32 32">
<path d="M9.5 19c0 3.59 2.91 6.5 6.5 6.5s6.5-2.91 6.5-6.5-2.91-6.5-6.5-6.5-6.5 2.91-6.5 6.5zM30 8h-7c-0.5-2-1-4-3-4h-8c-2 0-2.5 2-3 4h-7c-1.1 0-2 0.9-2 2v18c0 1.1 0.9 2 2 2h28c1.1 0 2-0.9 2-2v-18c0-1.1-0.9-2-2-2zM16 27.875c-4.902 0-8.875-3.973-8.875-8.875s3.973-8.875 8.875-8.875c4.902 0 8.875 3.973 8.875 8.875s-3.973 8.875-8.875 8.875zM30 14h-4v-2h4v2z"></path>
</symbol>
<symbol id="icon-leaf" viewBox="0 0 32 32">
<path d="M31.604 4.203c-3.461-2.623-8.787-4.189-14.247-4.189-6.754 0-12.257 2.358-15.099 6.469-1.335 1.931-2.073 4.217-2.194 6.796-0.108 2.296 0.278 4.835 1.146 7.567 2.965-8.887 11.244-15.847 20.79-15.847 0 0-8.932 2.351-14.548 9.631-0.003 0.004-0.078 0.097-0.207 0.272-1.128 1.509-2.111 3.224-2.846 5.166-1.246 2.963-2.4 7.030-2.4 11.931h4c0 0-0.607-3.819 0.449-8.212 1.747 0.236 3.308 0.353 4.714 0.353 3.677 0 6.293-0.796 8.231-2.504 1.736-1.531 2.694-3.587 3.707-5.764 1.548-3.325 3.302-7.094 8.395-10.005 0.292-0.167 0.48-0.468 0.502-0.804s-0.126-0.659-0.394-0.862z"></path>
</symbol>
<symbol id="icon-circle-right" viewBox="0 0 32 32">
<path d="M16 0c-8.837 0-16 7.163-16 16s7.163 16 16 16 16-7.163 16-16-7.163-16-16-16zM16 29c-7.18 0-13-5.82-13-13s5.82-13 13-13 13 5.82 13 13-5.82 13-13 13z"></path>
<path d="M11.086 22.086l2.829 2.829 8.914-8.914-8.914-8.914-2.828 2.828 6.086 6.086z"></path>
</symbol>
<symbol id="icon-circle-left" viewBox="0 0 32 32">
<path d="M16 32c8.837 0 16-7.163 16-16s-7.163-16-16-16-16 7.163-16 16 7.163 16 16 16zM16 3c7.18 0 13 5.82 13 13s-5.82 13-13 13-13-5.82-13-13 5.82-13 13-13z"></path>
<path d="M20.914 9.914l-2.829-2.829-8.914 8.914 8.914 8.914 2.828-2.828-6.086-6.086z"></path>
</symbol>
</defs>
</svg>
